<?xml version="1.0" standalone="no"?>
<!DOCTYPE svg PUBLIC "-//W3C//DTD SVG 20010904//EN"
 "http://www.w3.org/TR/2001/REC-SVG-20010904/DTD/svg10.dtd">
<svg version="1.0" xmlns="http://www.w3.org/2000/svg"
 width="736.000000pt" height="736.000000pt" viewBox="0 0 736.000000 736.000000"
 preserveAspectRatio="xMidYMid meet">
<metadata>
Created by potrace 1.14, written by Peter Selinger 2001-2017
</metadata>
<g transform="translate(0.000000,736.000000) scale(0.100000,-0.100000)"
fill="#000000" stroke="none">
<path d="M4945 5931 c-72 -18 -127 -64 -163 -136 -11 -22 -37 -105 -57 -183
-53 -207 -113 -338 -198 -437 l-32 -37 -70 43 c-395 240 -927 334 -1435 254
-347 -55 -791 -217 -1176 -429 -56 -31 -104 -56 -106 -56 -3 0 1 24 9 53 13
49 13 77 -3 189 -4 30 0 78 11 134 9 48 15 104 12 124 -16 121 -101 153 -162
63 -14 -21 -81 -121 -148 -223 -159 -240 -297 -422 -486 -642 l-66 -76 -5 74
c-5 59 -11 78 -30 99 -47 50 -93 22 -126 -78 -9 -29 -51 -126 -92 -217 -159
-353 -181 -421 -182 -555 0 -149 63 -293 164 -372 25 -20 26 -24 31 -173 l6
-152 -61 -64 c-117 -126 -154 -257 -115 -408 34 -130 119 -252 232 -333 131
-93 278 -122 453 -88 159 31 282 2 380 -90 80 -75 190 -167 243 -203 69 -48
216 -120 311 -152 159 -53 235 -65 431 -65 214 0 309 16 565 96 285 89 442 98
780 49 272 -40 471 -48 650 -26 157 20 335 63 470 113 102 37 295 134 369 185
314 215 326 221 652 332 250 86 344 131 413 196 104 98 121 200 56 337 -50
108 -163 210 -426 386 -120 80 -234 159 -253 174 l-33 29 36 109 c80 239 210
463 360 623 114 119 232 199 391 262 233 93 315 171 315 300 0 96 -63 183
-171 237 -50 25 -79 55 -129 130 -60 90 -149 122 -236 84 -91 -40 -123 -85
-198 -270 -90 -221 -206 -321 -504 -436 -148 -57 -519 -152 -534 -137 -30 32
-148 188 -148 198 0 28 53 190 79 242 52 103 103 157 225 237 120 79 172 128
206 195 60 117 19 280 -89 354 -40 28 -180 92 -261 119 -61 20 -119 27 -155
18z m186 -115 c81 -33 84 -36 97 -78 14 -46 10 -83 -15 -160 -18 -56 -53 -94
-110 -120 -24 -10 -55 -35 -70 -56 -35 -46 -42 -53 -128 -110 -83 -54 -88 -59
-108 -97 -8 -17 -29 -46 -46 -65 -16 -19 -38 -53 -48 -75 -9 -22 -18 -42 -19
-43 -4 -6 -114 80 -114 89 0 4 5 11 11 15 23 14 108 156 142 237 19 46 49 144
67 218 47 193 74 244 150 281 28 14 106 -1 191 -36z m-3471 -345 c0 -27 -68
-251 -87 -286 -9 -16 -27 -43 -40 -59 -28 -34 -46 -74 -62 -142 -9 -38 -25
-63 -64 -105 -29 -30 -67 -83 -86 -118 -25 -48 -75 -105 -210 -240 -190 -189
-272 -297 -345 -454 -40 -87 -89 -241 -106 -332 -20 -109 -19 -108 -35 -95
-23 19 -65 96 -80 148 -21 68 -19 203 5 288 10 39 57 160 103 270 46 109 97
237 112 283 24 73 29 82 40 67 21 -28 28 -156 15 -261 -14 -105 -8 -135 11
-59 9 37 30 68 83 129 146 165 330 395 426 531 39 55 239 357 270 407 34 54
50 64 50 28z m3448 -73 c7 -7 12 -23 12 -36 0 -18 -5 -23 -21 -20 -31 4 -46
32 -30 52 16 19 23 20 39 4z m-1443 -43 c299 -49 562 -149 797 -305 83 -54
112 -80 143 -126 39 -59 40 -59 43 -174 l4 -115 -44 -60 c-24 -33 -50 -79 -58
-102 -12 -41 -17 -45 -116 -92 -280 -135 -453 -301 -570 -546 -52 -109 -75
-138 -190 -237 -10 -9 -24 -23 -31 -31 -7 -8 -17 -17 -24 -19 -6 -2 -15 -22
-19 -43 -6 -31 -8 -34 -9 -13 l-1 27 -35 -22 c-19 -12 -34 -29 -35 -38 0 -9
-8 -23 -17 -30 -15 -11 -16 -11 -5 1 18 21 15 40 -8 40 -11 0 -20 -6 -20 -12
0 -9 -3 -10 -8 -2 -4 6 -22 13 -40 16 -27 4 -35 1 -42 -16 -8 -19 -9 -19 -9
-2 -1 17 -2 17 -26 2 -14 -9 -25 -14 -25 -12 0 3 -30 -10 -67 -29 -78 -40
-117 -43 -173 -15 -22 11 -68 22 -102 25 -35 3 -79 9 -98 15 -19 5 -47 10 -62
10 -39 0 -108 38 -101 56 3 7 9 11 14 8 5 -3 9 1 9 8 0 7 14 26 29 41 37 36
64 89 50 98 -7 4 -4 9 5 12 13 5 16 22 16 77 0 123 19 173 102 269 58 67 78
132 78 257 0 95 3 113 29 172 48 111 67 210 44 233 -31 31 -189 -54 -252 -135
-17 -21 -31 -32 -31 -24 0 8 -12 32 -26 54 -25 37 -26 42 -20 139 8 116 0 150
-36 173 -23 13 -32 14 -70 3 -58 -18 -101 -65 -172 -191 -88 -156 -170 -283
-261 -405 -130 -174 -333 -423 -347 -424 -3 -1 -9 12 -13 28 -12 58 -74 83
-115 46 -10 -9 -36 -69 -57 -134 -35 -108 -113 -276 -217 -467 -26 -47 -47
-102 -51 -130 -5 -38 -15 -56 -40 -80 -23 -21 -39 -51 -50 -88 -21 -72 -49
-105 -124 -145 -33 -17 -78 -47 -101 -66 -46 -39 -77 -43 -133 -20 -45 19 -74
48 -98 100 -15 32 -19 64 -19 165 0 273 69 529 210 784 121 216 265 384 585
679 45 42 29 39 -57 -9 -149 -84 -354 -264 -479 -421 -140 -174 -262 -423
-314 -643 -20 -83 -49 -150 -67 -150 -15 0 -4 266 16 377 65 363 236 628 573
885 543 415 1259 724 1828 788 114 12 392 5 510 -15z m2792 -38 c22 -20 43
-92 43 -150 0 -18 -9 -56 -19 -85 -11 -28 -19 -52 -18 -52 1 -1 25 -2 53 -3
92 -4 132 -54 100 -125 -15 -32 -81 -92 -102 -92 -26 0 -432 -213 -519 -272
-59 -40 -121 -82 -139 -93 -60 -37 -118 -88 -158 -139 -69 -89 -124 -140 -179
-170 -78 -41 -85 -50 -114 -137 -28 -83 -63 -134 -136 -198 -30 -26 -52 -57
-64 -88 -27 -73 -65 -121 -163 -211 -57 -53 -102 -105 -126 -146 -42 -71 -86
-111 -172 -155 -76 -38 -110 -46 -129 -31 -17 14 -55 4 -55 -14 0 -7 -17 -24
-37 -37 -21 -14 -59 -40 -84 -58 -66 -47 -117 -45 -220 9 -44 22 -105 45 -136
51 -113 21 -193 83 -193 149 0 14 -7 60 -15 103 -8 43 -15 116 -15 161 0 80 2
86 53 187 75 148 139 240 233 334 182 182 420 302 759 380 530 123 747 188
912 275 194 102 272 185 379 406 57 120 81 159 114 187 59 50 103 54 147 14z
m-1439 -43 c4 -26 -26 -40 -45 -21 -8 7 -11 21 -7 31 9 24 48 17 52 -10z
m-134 -89 c3 -9 -1 -18 -10 -22 -19 -7 -28 2 -21 22 8 19 23 19 31 0z m-2244
-426 c0 -17 -5 -85 -11 -152 -12 -139 -27 -179 -92 -249 -37 -39 -50 -65 -82
-162 -21 -64 -42 -116 -47 -116 -4 0 -8 -4 -8 -10 0 -5 -33 -56 -74 -112 -40
-57 -97 -146 -126 -198 -67 -122 -92 -154 -150 -196 -47 -33 -77 -83 -95 -157
-4 -16 -30 -50 -58 -75 -120 -111 -167 -163 -192 -212 -55 -108 -51 -215 11
-295 19 -25 31 -45 26 -45 -16 1 -141 97 -172 133 -24 28 -38 59 -51 115 -33
138 -23 205 51 332 80 137 142 272 185 404 41 127 43 130 55 101 8 -21 11 -75
8 -179 -4 -132 -3 -146 9 -122 8 15 23 61 34 103 15 59 29 90 62 130 23 28 94
116 158 195 181 224 396 533 458 658 29 58 84 140 94 140 4 0 7 -14 7 -31z
m2079 -23 c13 -16 4 -46 -14 -46 -7 0 -18 7 -25 15 -10 12 -10 18 0 30 15 19
24 19 39 1z m-34 -165 c7 -12 -12 -24 -25 -16 -11 7 -4 25 10 25 5 0 11 -4 15
-9z m-2238 -944 c-2 -23 -3 -1 -3 48 0 50 1 68 3 42 2 -26 2 -67 0 -90z m-87
43 c-8 -5 -19 -10 -25 -10 -5 0 -3 5 5 10 8 5 20 10 25 10 6 0 3 -5 -5 -10z
m317 4 c-3 -3 -12 -4 -19 -1 -8 3 -5 6 6 6 11 1 17 -2 13 -5z m10 -36 c-3 -8
-6 -5 -6 6 -1 11 2 17 5 13 3 -3 4 -12 1 -19z m-410 -100 c-2 -13 -4 -3 -4 22
0 25 2 35 4 23 2 -13 2 -33 0 -45z m290 -40 c-3 -7 -5 -2 -5 12 0 14 2 19 5
13 2 -7 2 -19 0 -25z m1273 12 c0 -5 -5 -10 -11 -10 -5 0 -7 5 -4 10 3 6 8 10
11 10 2 0 4 -4 4 -10z m-193 -52 c-2 -13 -4 -5 -4 17 -1 22 1 32 4 23 2 -10 2
-28 0 -40z m-1282 32 c3 -5 1 -10 -4 -10 -6 0 -11 5 -11 10 0 6 2 10 4 10 3 0
8 -4 11 -10z m252 -42 c-3 -8 -6 -5 -6 6 -1 11 2 17 5 13 3 -3 4 -12 1 -19z
m807 -31 c8 -12 7 -21 -5 -32 -21 -21 -49 -9 -49 20 0 36 34 44 54 12z m209 6
c-7 -2 -19 -2 -25 0 -7 3 -2 5 12 5 14 0 19 -2 13 -5z m-598 -63 c0 -18 -6
-26 -23 -28 -27 -4 -40 22 -22 44 19 22 45 13 45 -16z m2015 10 c11 -7 12 -14
4 -27 -15 -24 -33 -28 -40 -9 -7 18 1 46 13 46 4 0 15 -5 23 -10z m-1746 -51
c-3 -5 -10 -7 -15 -3 -5 3 -7 10 -3 15 3 5 10 7 15 3 5 -3 7 -10 3 -15z
m-2548 -199 c-3 -44 -1 -114 5 -156 6 -42 7 -80 2 -83 -16 -11 -70 -86 -88
-121 -25 -49 -27 -202 -2 -226 4 -4 7 -12 7 -18 -1 -19 -66 63 -99 124 -64
119 -71 262 -17 353 19 33 183 207 194 207 3 0 2 -36 -2 -80z m1754 70 c265
-20 614 -84 878 -161 133 -39 353 -121 380 -142 21 -17 -65 -33 -213 -42 -181
-11 -223 -9 -285 10 -35 10 -88 16 -145 16 -80 -1 -97 2 -153 29 -60 28 -65
29 -99 15 -52 -22 -71 -19 -134 20 -52 32 -63 35 -121 33 -59 -3 -68 0 -119
34 -33 23 -81 43 -124 54 -76 18 -169 61 -224 103 l-35 26 35 6 c56 10 215 10
359 -1z m2400 -25 c15 -18 10 -45 -12 -59 -33 -20 -69 20 -54 60 7 18 50 18
66 -1z m-160 -79 c0 -20 -27 -39 -45 -32 -18 6 -20 37 -3 54 14 14 48 -2 48
-22z m-182 -5 c8 -4 12 -19 10 -32 -2 -18 -9 -24 -28 -24 -28 0 -39 27 -20 50
14 17 20 18 38 6z m-2283 -66 c0 -28 -29 -25 -33 3 -3 19 0 23 15 20 10 -2 18
-12 18 -23z m2145 -65 c0 -11 -7 -20 -15 -20 -8 0 -15 9 -15 20 0 11 7 20 15
20 8 0 15 -9 15 -20z m-135 -20 c0 -18 -6 -26 -22 -28 -26 -4 -43 35 -22 49
24 15 44 5 44 -21z m283 18 c30 -30 -11 -85 -44 -57 -25 21 -11 69 21 69 6 0
16 -5 23 -12z m-2130 -20 c-6 -18 -28 -21 -28 -4 0 9 7 16 16 16 9 0 14 -5 12
-12z m-90 -34 c4 -25 -20 -47 -42 -38 -16 6 -22 45 -9 58 14 14 48 1 51 -20z
m321 2 c9 -10 7 -19 -6 -35 -28 -34 -72 -7 -57 34 8 19 48 20 63 1z m259 -40
c-4 -26 -27 -28 -42 -3 -8 13 -8 20 3 26 21 14 42 1 39 -23z m-122 -35 c-10
-16 -36 -13 -43 5 -8 22 18 37 36 20 7 -8 10 -19 7 -25z m364 -41 c0 -10 -6
-20 -12 -23 -21 -7 -38 4 -38 23 0 10 6 20 13 23 20 7 37 -4 37 -23z m279 7
c15 -19 -10 -53 -33 -44 -16 6 -22 38 -9 50 10 11 30 8 42 -6z m171 5 c0 -13
-12 -22 -22 -16 -10 6 -1 24 13 24 5 0 9 -4 9 -8z m-680 -27 c10 -12 10 -18 0
-30 -7 -8 -18 -15 -25 -15 -7 0 -18 7 -25 15 -10 12 -10 18 0 30 7 8 18 15 25
15 7 0 18 -7 25 -15z m2300 -3 c0 -17 -103 -110 -148 -135 -26 -14 -83 -36
-127 -48 -69 -18 -96 -21 -200 -16 -123 5 -174 18 -260 66 -28 16 -33 20 -15
17 224 -49 484 -18 664 78 45 24 82 44 84 45 1 0 2 -3 2 -7z m979 -16 c-7 -7
-155 -61 -314 -115 -257 -88 -338 -128 -529 -258 -44 -30 -70 -45 -56 -33 14
12 77 72 140 134 128 126 200 177 281 200 30 8 131 25 224 36 94 12 184 25
200 30 33 9 61 12 54 6z m-4319 -649 c287 -113 658 -162 959 -127 47 5 86 8
89 6 2 -2 -48 -16 -110 -31 -93 -23 -143 -29 -280 -33 -242 -7 -408 25 -593
113 -69 34 -225 130 -225 140 0 3 10 -1 23 -9 12 -8 74 -34 137 -59z m1087
-113 c-3 -3 -12 -4 -19 -1 -8 3 -5 6 6 6 11 1 17 -2 13 -5z"/>
<path d="M4874 5356 c-8 -21 3 -36 27 -36 15 0 20 6 17 22 -4 27 -35 37 -44
14z"/>
<path d="M4586 4792 c-8 -13 11 -35 23 -28 16 10 14 36 -3 36 -8 0 -17 -4 -20
-8z"/>
<path d="M4555 4660 c-9 -15 3 -30 24 -30 23 0 31 9 24 26 -6 16 -39 19 -48 4z"/>
<path d="M4494 4609 c-7 -12 15 -31 28 -23 4 3 8 12 8 20 0 17 -26 19 -36 3z"/>
<path d="M3520 3611 c0 -25 15 -34 28 -18 8 9 6 16 -9 25 -16 11 -19 9 -19 -7z"/>
<path d="M3236 3577 c-33 -24 1 -73 42 -60 22 8 11 73 -12 73 -7 0 -20 -6 -30
-13z"/>
<path d="M3386 3554 c-11 -29 13 -44 42 -26 17 12 4 42 -18 42 -10 0 -21 -7
-24 -16z"/>
<path d="M3046 3521 c-9 -14 5 -42 18 -38 15 5 14 39 -1 44 -6 2 -14 0 -17 -6z"/>
<path d="M3151 3461 c-12 -8 -12 -12 2 -25 23 -23 37 -20 37 9 0 26 -14 31
-39 16z"/>
<path d="M4867 3393 c-12 -11 -8 -23 8 -23 8 0 15 7 15 15 0 16 -12 20 -23 8z"/>
<path d="M4737 3314 c-4 -4 -7 -18 -7 -31 0 -21 4 -24 28 -21 21 2 27 8 27 28
0 18 -6 26 -20 28 -12 2 -24 0 -28 -4z"/>
<path d="M4597 3283 c-22 -22 7 -68 36 -57 22 8 32 44 16 55 -17 10 -43 12
-52 2z"/>
<path d="M4422 3178 c-31 -31 10 -75 43 -48 21 17 19 37 -4 50 -24 13 -24 13
-39 -2z"/>
<path d="M4290 3100 c0 -15 5 -20 18 -18 9 2 17 10 17 18 0 8 -8 16 -17 18
-13 2 -18 -3 -18 -18z"/>
<path d="M2580 3030 c0 -15 5 -20 18 -18 9 2 17 10 17 18 0 8 -8 16 -17 18
-13 2 -18 -3 -18 -18z"/>
<path d="M2904 2995 c-4 -9 -2 -21 4 -27 15 -15 44 -1 40 19 -4 23 -36 29 -44
8z"/>
<path d="M2817 2964 c-14 -14 -7 -35 11 -32 9 2 17 10 17 17 0 16 -18 25 -28
15z"/>
<path d="M3054 2935 c-4 -9 -2 -21 4 -27 16 -16 47 -5 47 17 0 26 -42 34 -51
10z"/>
<path d="M3230 2905 c0 -10 7 -15 18 -13 21 4 19 22 -2 26 -10 2 -16 -3 -16
-13z"/>
</g>
</svg>
